<?xml version="1.0" encoding="UTF-8"?>
<svg width="15px" height="27px" viewBox="0 0 15 27" version="1.1" xmlns="http://www.w3.org/2000/svg" xmlns:xlink="http://www.w3.org/1999/xlink">
    <!-- Generator: Sketch 43.2 (39069) - http://www.bohemiancoding.com/sketch -->
    <title>Page 1</title>
    <desc>Created with Sketch.</desc>
    <defs></defs>
    <g id="Styles" stroke="none" stroke-width="1" fill="none" fill-rule="evenodd">
        <g id="iPhone-7-Copy-5" transform="translate(-239.000000, -460.000000)">
            <g id="Page-1" transform="translate(240.000000, 461.000000)">
                <path d="M9.25543478,12.8311111 L9.25543478,1.575 C9.25543478,0.708888889 8.53478261,0 7.65304348,0 L5.34695652,0 C4.46521739,0 3.74456522,0.708888889 3.74456522,1.575 L3.74456522,12.8311111 C1.534,13.8511111 0,16.0522222 0,18.6111111 C0,22.1394444 2.90973913,25 6.5,25 C10.0902609,25 13,22.1394444 13,18.6111111 C13,16.0522222 11.466,13.8511111 9.25543478,12.8311111 Z" id="Stroke-1" stroke="#FFFFFF" stroke-width="2"></path>
                <path d="M4.2331543,8.12792969 L8.76855469,8.12792969 L9.43465616,13.6124444 C9.43465616,13.6124444 12.2391759,14.7407407 12.8219938,17.1111111 C13.4048117,19.4814815 12.8219938,26 6.99381479,26 C1.1656358,26 0,22.4444444 0,18.8888889 C0,15.3333333 3.4969074,13.5555556 3.4969074,13.5555556 L4.2331543,8.12792969 Z" id="Fill-3" fill="#FFFFFF"></path>
            </g>
        </g>
    </g>
</svg>